<?xml version="1.0" standalone="no"?>
<!DOCTYPE svg PUBLIC "-//W3C//DTD SVG 20010904//EN"
 "http://www.w3.org/TR/2001/REC-SVG-20010904/DTD/svg10.dtd">
<svg version="1.0" xmlns="http://www.w3.org/2000/svg"
 width="1200.000000pt" height="1200.000000pt" viewBox="0 0 1200.000000 1200.000000"
 preserveAspectRatio="xMidYMid meet">

<g transform="translate(0.000000,1200.000000) scale(0.100000,-0.100000)"
fill="#004644" stroke="none">
<path d="M3430 6000 c0 -600 3 -910 10 -910 7 0 10 310 10 910 0 600 -3 910
-10 910 -7 0 -10 -310 -10 -910z"/>
<path d="M1840 6653 c-39 -12 -63 -30 -76 -55 -12 -22 -14 -133 -14 -656 0
-423 4 -639 11 -660 22 -65 32 -67 359 -70 162 -2 314 0 338 3 27 4 55 17 75
35 l32 28 0 655 c0 641 0 655 -20 677 -42 47 -64 50 -387 49 -167 0 -310 -3
-318 -6z m655 -68 c14 -13 25 -36 25 -50 l0 -25 -360 0 -360 0 0 28 c0 30 16
57 40 65 8 3 154 6 323 6 l308 1 24 -25z m25 -580 l0 -455 -360 0 -360 0 0
455 0 455 360 0 360 0 0 -455z m0 -600 c0 -89 -2 -98 -25 -121 l-25 -25 -321
3 c-380 4 -349 -9 -349 140 l0 98 360 0 360 0 0 -95z"/>
<path d="M2045 6570 c-13 -22 17 -40 65 -40 48 0 78 18 65 40 -3 5 -33 10 -65
10 -32 0 -62 -5 -65 -10z"/>
<path d="M2213 6564 c-5 -14 11 -33 28 -34 15 0 41 28 35 38 -11 18 -56 14
-63 -4z"/>
<path d="M1862 6378 c-7 -7 -12 -41 -12 -83 0 -42 5 -76 12 -83 7 -7 40 -12
79 -12 88 0 99 11 99 95 0 84 -11 95 -99 95 -39 0 -72 -5 -79 -12z m128 -83
l0 -45 -51 0 -51 0 6 31 c3 17 6 38 6 45 0 10 13 14 45 14 l45 0 0 -45z"/>
<path d="M2077 6372 c-23 -25 -24 -134 -1 -156 19 -20 144 -22 162 -4 7 7 12
41 12 83 0 42 -5 76 -12 83 -7 7 -40 12 -78 12 -52 0 -71 -4 -83 -18z m133
-77 l0 -45 -50 0 -50 0 0 45 0 45 50 0 50 0 0 -45z"/>
<path d="M2292 6378 c-7 -7 -12 -41 -12 -83 0 -42 5 -76 12 -83 7 -7 41 -12
85 -12 86 0 93 8 93 95 0 87 -7 95 -93 95 -44 0 -78 -5 -85 -12z m128 -83 l0
-45 -45 0 -45 0 0 45 0 45 45 0 45 0 0 -45z"/>
<path d="M1873 6165 c-20 -14 -23 -25 -23 -83 0 -37 4 -74 10 -82 6 -9 32 -16
78 -18 64 -4 71 -2 86 19 20 29 22 127 2 154 -19 26 -122 33 -153 10z m117
-85 l0 -50 -44 0 c-25 0 -47 4 -51 9 -3 6 -3 28 1 50 7 41 7 41 50 41 l44 0 0
-50z"/>
<path d="M2081 6161 c-17 -17 -21 -33 -21 -81 0 -80 19 -100 96 -100 86 0 94
8 94 93 0 40 -4 79 -9 86 -6 10 -32 16 -74 19 -56 4 -68 1 -86 -17z m127 -83
l3 -48 -50 0 -51 0 0 51 0 50 48 -3 47 -3 3 -47z"/>
<path d="M2303 6165 c-20 -14 -23 -25 -23 -83 0 -37 4 -74 9 -81 6 -10 33 -16
76 -19 91 -6 105 7 105 98 0 82 -10 92 -88 98 -41 2 -63 -1 -79 -13z m117 -85
l0 -50 -45 0 -45 0 0 50 0 50 45 0 45 0 0 -50z"/>
<path d="M1862 5948 c-7 -7 -12 -41 -12 -83 0 -42 5 -76 12 -83 7 -7 41 -12
85 -12 86 0 93 7 93 98 0 78 -15 92 -101 92 -37 0 -70 -5 -77 -12z m128 -83
l0 -45 -51 0 -51 0 6 31 c3 17 6 38 6 45 0 10 13 14 45 14 l45 0 0 -45z"/>
<path d="M2077 5942 c-12 -13 -17 -37 -17 -76 0 -88 7 -96 93 -96 44 0 78 5
85 12 7 7 12 41 12 83 0 42 -5 76 -12 83 -7 7 -40 12 -78 12 -52 0 -71 -4 -83
-18z m133 -77 l0 -45 -50 0 -50 0 0 45 0 45 50 0 50 0 0 -45z"/>
<path d="M2298 5949 c-15 -8 -18 -24 -18 -82 0 -44 5 -78 12 -85 7 -7 41 -12
83 -12 42 0 76 5 83 12 18 18 16 143 -4 162 -18 18 -128 22 -156 5z m122 -84
l0 -45 -45 0 -45 0 0 45 0 45 45 0 45 0 0 -45z"/>
<path d="M2113 5469 c-29 -15 -56 -74 -48 -106 26 -107 185 -90 185 19 0 69
-77 117 -137 87z m75 -51 c7 -7 12 -25 12 -40 0 -50 -81 -51 -88 -1 -6 40 48
69 76 41z"/>
<path d="M4419 6470 c-20 -11 -48 -32 -61 -49 -24 -28 -168 -371 -168 -399 0
-28 -35 -71 -61 -77 -60 -13 -89 -85 -52 -127 23 -25 19 -55 -16 -137 -26 -61
-30 -83 -25 -118 5 -34 12 -46 36 -57 45 -23 98 5 98 53 0 13 21 65 46 114 25
49 43 91 40 94 -8 8 31 61 54 73 10 5 62 15 117 21 94 10 306 69 328 91 7 7
-1 8 -22 3 -21 -4 -33 -3 -33 4 0 5 16 13 35 17 19 3 39 12 46 20 9 11 6 14
-15 14 -15 0 -37 -5 -48 -11 -11 -6 -56 -12 -99 -14 -66 -3 -77 -1 -72 12 5
11 1 14 -13 10 -37 -11 -140 -18 -119 -8 18 9 17 10 -7 10 -16 1 -28 4 -28 9
0 4 24 51 53 104 49 91 107 168 128 168 11 0 39 -53 39 -74 0 -8 10 -21 22
-27 18 -10 24 -8 35 7 17 23 17 106 -1 148 -30 71 -122 147 -178 146 -13 -1
-39 -10 -59 -20z m236 -529 c-26 -10 -95 -21 -95 -15 0 10 46 23 80 23 27 0
31 -2 15 -8z m-110 -21 c-3 -5 -14 -10 -23 -10 -15 0 -15 2 -2 10 20 13 33 13
25 0z m-295 -125 c-7 -9 -15 -13 -18 -10 -3 2 1 11 8 20 7 9 15 13 18 10 3 -2
-1 -11 -8 -20z m-130 -5 c0 -5 -4 -10 -10 -10 -5 0 -10 5 -10 10 0 6 5 10 10
10 6 0 10 -4 10 -10z m81 -33 c-8 -8 -11 -7 -11 4 0 20 13 34 18 19 3 -7 -1
-17 -7 -23z m-29 -129 c-7 -7 -12 -8 -12 -2 0 14 12 26 19 19 2 -3 -1 -11 -7
-17z"/>
<path d="M5046 6427 c-166 -286 -328 -655 -306 -695 5 -9 11 -30 15 -45 6 -29
46 -77 64 -77 6 0 27 14 47 32 34 30 36 34 30 78 -6 41 -2 57 33 126 65 130
62 127 118 71 26 -26 97 -107 158 -180 97 -116 118 -136 175 -165 63 -31 68
-32 120 -21 30 6 83 26 118 44 55 29 67 32 93 23 51 -18 175 -4 279 31 89 30
126 49 116 58 -2 3 -48 -10 -102 -27 -53 -17 -111 -30 -128 -28 -23 2 -6 10
72 32 56 16 105 32 108 37 3 5 0 9 -5 9 -27 0 -6 18 39 34 28 10 50 22 50 26
0 4 -57 -11 -126 -33 -94 -30 -130 -38 -142 -31 -10 6 -51 9 -92 7 -104 -5
-107 -2 -85 86 25 102 38 116 143 139 48 11 121 26 162 33 41 7 76 13 78 15 9
6 -13 75 -29 93 -25 27 -61 27 -155 -1 -41 -11 -77 -19 -80 -16 -3 4 5 22 18
42 25 39 40 45 175 71 81 15 172 43 213 65 39 21 14 21 -39 0 -59 -23 -61 -23
-61 -12 0 5 19 17 43 26 37 16 40 19 22 26 -11 5 -37 9 -57 9 -21 1 -38 6 -38
11 0 6 -11 10 -24 10 -52 0 -87 12 -82 29 19 64 19 71 -7 80 -74 28 -91 25
-146 -23 -28 -25 -60 -46 -71 -46 -19 0 -46 -58 -37 -83 2 -6 -27 -73 -64
-148 -93 -187 -113 -248 -104 -324 3 -32 11 -68 17 -78 13 -25 8 -28 -49 -29
-78 -2 -132 31 -270 165 -68 66 -123 123 -123 126 0 14 63 43 82 38 15 -4 32
6 64 39 25 26 48 42 55 39 17 -11 139 114 139 143 0 34 -18 62 -40 62 -11 0
-19 6 -17 13 1 7 -7 11 -21 9 -12 -2 -29 4 -38 12 -20 21 -76 20 -141 -3 -29
-10 -55 -16 -58 -13 -3 3 -5 20 -5 37 0 40 -34 85 -63 85 -14 0 -29 -12 -41
-33z m774 -292 c-7 -9 -15 -13 -18 -10 -3 2 1 11 8 20 7 9 15 13 18 10 3 -2
-1 -11 -8 -20z m-36 -50 c-4 -8 -10 -15 -15 -15 -4 0 -6 7 -3 15 4 8 10 15 15
15 4 0 6 -7 3 -15z m-80 -180 c-4 -8 -8 -15 -10 -15 -2 0 -4 7 -4 15 0 8 4 15
10 15 5 0 7 -7 4 -15z m-18 -61 c-4 -14 -9 -24 -12 -21 -3 2 -2 17 2 31 3 15
9 25 11 22 3 -3 2 -17 -1 -32z m-787 -28 c-7 -14 -16 -26 -21 -26 -5 0 -1 13
8 30 21 35 30 33 13 -4z m768 -48 c-3 -7 -5 -2 -5 12 0 14 2 19 5 13 2 -7 2
-19 0 -25z m-17 -123 c0 -7 -58 -35 -72 -35 -7 1 3 9 22 20 35 19 50 24 50 15z
m-115 -55 c-11 -5 -31 -9 -45 -9 -20 -1 -22 1 -10 9 8 5 29 9 45 9 26 0 27 -2
10 -9z"/>
<path d="M6517 6415 c-27 -25 -57 -45 -67 -45 -19 0 -44 -55 -38 -83 2 -8 -32
-86 -75 -173 -90 -184 -105 -242 -88 -326 16 -73 46 -117 101 -148 39 -21 58
-25 135 -25 73 0 106 5 175 29 98 33 140 53 140 65 0 5 -47 -6 -105 -25 -90
-29 -169 -44 -154 -29 3 2 45 16 95 30 124 36 118 33 105 49 -10 12 -3 17 38
31 28 9 54 21 57 27 4 7 -2 7 -17 3 -177 -57 -243 -74 -257 -66 -10 5 -47 7
-84 4 -90 -5 -111 6 -102 55 4 20 15 60 26 89 17 48 23 53 66 67 51 17 243 56
272 56 27 0 32 15 20 59 -19 71 -52 79 -178 41 -40 -12 -75 -20 -78 -17 -3 3
6 23 19 45 23 35 31 40 89 52 204 40 283 65 309 96 13 16 12 16 -9 5 -41 -22
-102 -40 -102 -31 0 5 11 12 25 16 13 3 29 12 36 20 13 16 -3 25 -49 28 -15 1
-32 4 -38 8 -5 4 -34 10 -63 14 -47 6 -52 9 -47 28 21 72 21 72 -27 85 -68 17
-78 14 -130 -34z m-3 -270 c-4 -8 -10 -15 -15 -15 -4 0 -6 7 -3 15 4 8 10 15
15 15 4 0 6 -7 3 -15z m-44 -55 c0 -5 -5 -10 -11 -10 -5 0 -7 5 -4 10 3 6 8
10 11 10 2 0 4 -4 4 -10z m-70 -174 c0 -3 -4 -8 -10 -11 -5 -3 -10 -1 -10 4 0
6 5 11 10 11 6 0 10 -2 10 -4z m-17 -56 c-3 -11 -10 -23 -16 -27 -7 -4 -8 0
-4 11 4 10 7 22 7 27 0 5 4 9 9 9 5 0 7 -9 4 -20z m-26 -92 c-3 -7 -5 -2 -5
12 0 14 2 19 5 13 2 -7 2 -19 0 -25z"/>
<path d="M7680 6418 c-16 -24 -36 -53 -45 -65 -22 -32 -84 -45 -208 -46 -126
0 -136 -7 -117 -78 25 -91 20 -88 131 -82 55 3 99 3 99 0 0 -3 -22 -61 -49
-129 -79 -200 -84 -219 -72 -282 15 -80 36 -108 78 -104 34 3 35 4 64 93 34
106 33 99 13 91 -12 -5 -14 -1 -8 17 3 12 10 29 15 37 7 12 8 11 9 -4 0 -16 3
-17 12 -8 7 7 13 35 14 62 1 54 10 73 24 50 7 -11 13 -6 25 23 9 21 13 42 10
47 -3 5 -1 11 5 15 5 3 20 29 31 56 17 38 30 53 56 64 20 8 39 12 44 10 4 -3
32 1 61 10 29 8 95 19 147 24 52 6 97 15 101 22 4 6 16 8 27 5 16 -5 18 -1 18
40 -1 54 -26 86 -80 104 -28 9 -55 8 -143 -9 -60 -12 -114 -21 -120 -21 -7 0
-23 23 -37 50 -34 66 -62 68 -105 8z m-28 -420 c-7 -7 -12 -8 -12 -2 0 14 12
26 19 19 2 -3 -1 -11 -7 -17z"/>
<path d="M8342 6433 c-37 -54 -200 -329 -231 -391 -45 -90 -91 -233 -91 -284
0 -30 8 -55 25 -81 27 -39 40 -45 48 -24 3 6 6 3 6 -9 1 -12 12 -26 26 -32 34
-16 32 -17 40 29 7 41 90 269 120 331 16 33 16 33 -2 10 -11 -13 -34 -65 -52
-115 -32 -86 -51 -125 -51 -101 0 18 70 197 90 230 12 18 30 36 40 39 11 4 20
10 20 15 0 5 11 20 24 33 13 14 37 49 51 78 15 30 34 62 42 71 9 10 18 45 20
82 5 60 4 66 -21 91 -14 14 -26 32 -26 40 0 27 -56 18 -78 -12z m-182 -730
c-11 -17 -11 -17 -6 0 3 10 6 24 7 30 0 9 2 9 5 0 3 -7 0 -20 -6 -30z"/>
<path d="M9891 6427 c-18 -20 -48 -41 -65 -48 -40 -16 -46 -26 -46 -71 0 -26
-25 -87 -82 -203 -74 -151 -83 -173 -86 -235 -11 -194 114 -288 325 -244 79
16 201 58 217 74 21 21 -5 17 -107 -16 -63 -20 -114 -31 -122 -27 -9 5 25 19
92 37 90 24 104 31 89 41 -14 11 -9 15 39 35 90 36 56 34 -66 -4 -117 -37
-153 -43 -164 -26 -4 6 -11 7 -18 3 -15 -9 -131 -8 -147 2 -16 10 -7 82 20
141 24 56 43 64 220 99 74 14 138 29 142 33 12 12 -4 61 -28 87 -29 31 -49 31
-154 0 -46 -14 -85 -25 -87 -25 -5 0 22 51 39 73 9 11 57 26 149 46 132 28
239 65 239 81 0 5 -23 -1 -51 -11 -63 -24 -91 -19 -31 6 23 9 42 21 42 25 0
10 -76 24 -89 16 -5 -3 -11 1 -15 9 -3 10 -20 15 -48 15 -52 0 -71 10 -58 30
13 20 12 67 0 75 -6 4 -34 9 -63 12 -49 5 -54 3 -86 -30z m289 -131 c0 -3 -4
-8 -10 -11 -5 -3 -10 -1 -10 4 0 6 5 11 10 11 6 0 10 -2 10 -4z m-308 -158
c-7 -7 -12 -8 -12 -2 0 14 12 26 19 19 2 -3 -1 -11 -7 -17z m-32 -42 c0 -3 -4
-8 -10 -11 -5 -3 -10 -1 -10 4 0 6 5 11 10 11 6 0 10 -2 10 -4z m-80 -180 c0
-3 -4 -8 -10 -11 -5 -3 -10 -1 -10 4 0 6 5 11 10 11 6 0 10 -2 10 -4z m-19
-67 c-9 -22 -10 -22 -10 -3 -1 11 2 24 6 27 12 12 14 0 4 -24z m-11 -64 c0 -8
-4 -15 -10 -15 -5 0 -10 7 -10 15 0 8 5 15 10 15 6 0 10 -7 10 -15z"/>
<path d="M8857 6388 c-188 -199 -183 -193 -299 -378 -100 -158 -138 -231 -138
-261 0 -29 93 -122 117 -117 12 3 17 11 15 28 -3 28 16 90 28 90 4 0 6 -10 3
-22 -9 -36 1 -21 77 117 113 203 212 345 241 345 14 0 11 -38 -5 -68 -7 -15
-25 -59 -39 -98 l-25 -71 19 -44 c25 -54 32 -58 85 -54 38 2 56 13 148 91 58
49 107 96 111 105 3 9 33 31 67 49 74 39 74 47 -16 -145 -40 -84 -66 -153 -66
-173 0 -66 45 -120 109 -132 36 -6 40 -5 51 19 32 69 40 103 28 124 -8 16 -8
22 1 25 6 2 11 10 11 18 0 8 4 14 10 14 16 0 38 42 44 85 l6 40 -16 -43 c-9
-24 -18 -41 -21 -38 -11 11 20 97 39 107 15 8 17 13 7 25 -7 8 -7 14 -1 14 5
0 13 11 16 25 3 13 19 31 35 39 48 25 54 71 20 160 -23 58 -65 96 -107 96 -23
0 -182 -78 -181 -88 4 -24 -3 -32 -23 -27 -17 4 -39 -7 -82 -39 -33 -25 -63
-43 -68 -40 -4 3 -8 28 -8 55 0 33 -9 70 -29 113 -48 107 -98 123 -164 54z
m609 -275 c-10 -10 -19 5 -10 18 6 11 8 11 12 0 2 -7 1 -15 -2 -18z m-25 -46
c-10 -9 -11 -8 -5 6 3 10 9 15 12 12 3 -3 0 -11 -7 -18z m-38 -113 c-13 -36
-18 -43 -21 -27 -3 21 25 89 34 81 2 -3 -4 -27 -13 -54z m-36 -76 c-3 -8 -6
-5 -6 6 -1 11 2 17 5 13 3 -3 4 -12 1 -19z m-737 -58 c0 -5 -5 -10 -11 -10 -5
0 -7 5 -4 10 3 6 8 10 11 10 2 0 4 -4 4 -10z"/>
<path d="M5175 6020 c-3 -5 -2 -10 4 -10 5 0 13 5 16 10 3 6 2 10 -4 10 -5 0
-13 -4 -16 -10z"/>
<path d="M6715 5795 c-25 -12 -26 -14 -9 -15 12 0 27 7 34 15 15 18 14 18 -25
0z"/>
<path d="M10070 5795 c-25 -10 -29 -14 -14 -14 11 -1 29 6 40 14 23 17 19 17
-26 0z"/>
<path d="M5968 5776 c-38 -11 -68 -24 -68 -28 0 -12 22 -9 52 6 15 8 40 17 57
21 17 4 33 11 36 16 8 12 3 11 -77 -15z"/>
<path d="M6620 5765 c-33 -9 -40 -14 -28 -19 9 -4 32 1 55 13 43 23 37 24 -27
6z"/>
<path d="M9983 5769 c-18 -5 -33 -12 -33 -14 0 -11 48 -4 66 10 22 16 13 17
-33 4z"/>
</g>
</svg>
